<?xml version="1.0" standalone="no"?>
<!DOCTYPE svg PUBLIC "-//W3C//DTD SVG 20010904//EN"
 "http://www.w3.org/TR/2001/REC-SVG-20010904/DTD/svg10.dtd">
<svg version="1.0" xmlns="http://www.w3.org/2000/svg"
 width="512.000000pt" height="512.000000pt" viewBox="0 0 512.000000 512.000000"
 preserveAspectRatio="xMidYMid meet">
<metadata>
Created by potrace 1.14, written by Peter Selinger 2001-2017
</metadata>
<g transform="translate(0.000000,512.000000) scale(0.100000,-0.100000)"
fill="#000000" stroke="none">
<path d="M3097 4444 c-1 -1 -38 -5 -82 -8 -138 -11 -220 -23 -350 -50 -16 -3
-126 -29 -170 -40 -496 -123 -1030 -415 -1248 -684 -116 -143 -156 -261 -123
-362 20 -61 96 -109 181 -114 116 -8 194 28 320 146 117 110 376 301 529 390
366 214 763 328 1121 323 238 -4 405 -86 405 -197 0 -102 -161 -291 -360 -423
-149 -99 -501 -275 -527 -263 -11 4 -6 58 8 84 33 62 -54 157 -160 178 -92 17
-182 -54 -291 -228 -87 -143 -115 -196 -434 -831 -146 -291 -287 -570 -314
-620 -26 -49 -71 -133 -99 -185 -27 -52 -76 -143 -108 -202 -31 -60 -61 -110
-66 -114 -5 -3 -46 -7 -91 -9 -245 -13 -336 -44 -385 -130 -38 -67 -24 -166
32 -221 45 -45 186 -104 287 -119 23 -4 68 -11 98 -15 56 -9 454 -5 545 5 589
64 1118 239 1519 502 322 212 521 459 570 708 23 115 5 293 -40 400 -59 143
-227 292 -459 408 -98 49 -295 127 -323 127 -23 1 12 19 103 55 208 81 481
230 627 342 398 305 503 592 314 858 -45 64 -161 147 -264 188 -66 27 -199 63
-267 72 -22 3 -49 8 -61 10 -55 12 -426 28 -437 19z m-349 -1808 c323 -125
509 -291 551 -493 50 -240 -160 -507 -540 -687 -122 -58 -280 -114 -394 -140
-38 -9 -86 -21 -106 -26 -20 -6 -59 -13 -85 -16 -27 -3 -56 -7 -64 -9 -8 -3
-42 -7 -75 -10 -33 -3 -71 -8 -83 -11 -27 -5 -49 -51 194 401 98 183 394 776
394 789 0 2 23 52 50 110 28 58 50 111 50 116 0 16 15 12 108 -24z"/>
</g>
</svg>
